# xmcd
#
# Track frame offsets: 
#        150
#        11524
#        21192
#        31779
#        43711
#        53625
#        62970
#        74175
#        83636
#        93071
#        101558
#        112282
#        122148
#        131892
#        142092
#        151853
#        159653
#        168786
#        179266
#        190841
#        202857
#        211345
#        222255
#        233315
#        244013
#        253200
#        263385
#        273303
#        284273
#        296329
#        306329
#
# Disc length: 4227 seconds
#
# Revision: 0
# Processed by: cddbd v1.5.2PL0 Copyright (c) Steve Scherf et al.
# Submitted via: ExactAudioCopyFreeDBPlugin 1.0
#
DISCID=bb10811f
DTITLE=Various Artist - The Hillbillies They Tried To Rock Vol.2
DYEAR=2014
DGENRE=Country
TTITLE0=Little Jimmy Dickens - (I Got ) A Hole In My Pocket
TTITLE1=Marty Robbins - Long Tall Sally
TTITLE2=Patsy Cline - Stop, Look And Listen
TTITLE3=Bill Haley - Crazy Man Crazy
TTITLE4=George Jones - Heartbreak Hotel
TTITLE5=Myrna Lorrie - Hello Baby
TTITLE6=Don Reno and Red Smiley - Country Boy Rock 'n' Roll
TTITLE7=Freddie Hart - Dig Boy Dig
TTITLE8=Tex Williams - Let's Go Rockabilly
TTITLE9=Jean Chapel - Welcome To The Club
TTITLE10=Hank Thompson - Rockin' In The Congo
TTITLE11=Jimmy Murphy - Sixteen Tons Rock 'n' Roll
TTITLE12=Webb Pierce - Bye Bye Love
TTITLE13=Onie Wheeler - Going Back To The City
TTITLE14=Alvis Wayne - Sleep Rock-A-Roll, Rock-A-Baby
TTITLE15=Marvin Rainwater - I Dig You Baby
TTITLE16=Hank Snow - Hula Rock
TTITLE17=Johnny Horton - Honky-Tonk Hardwood Floor
TTITLE18=The Davis Sisters - Rock-A-Bye Boogie
TTITLE19=Betsy Gay - Hound Dog
TTITLE20=Leroy Van Dyke - Chicken Shack Boogie
TTITLE21=Moon Mullican - Seven Nights To Rock
TTITLE22=Lefty Frizzell and Shirley Caddell - No One To Talk To (But The
TTITLE22=Blues)
TTITLE23=Wilf Carter - The Yodelin' Song
TTITLE24=Skeets McDonald - You Oughta See Grandma Rock
TTITLE25=Eddy Arnold - Rockin' Mockin' Bird
TTITLE26=Buck Owens - Sweet Thing
TTITLE27=The Sons Of The Pioneers - Tennessee Rock 'n' Roll
TTITLE28=Carson Robison - Rockin' And Rollin' With Grandmaw (On A Satu
TTITLE28=rday Night)
TTITLE29=Red Foley - Crazy Little Guitar Man
TTITLE30=Bob Wills - So Let's Rock
EXTD=
EXTT0=
EXTT1=
EXTT2=
EXTT3=
EXTT4=
EXTT5=
EXTT6=
EXTT7=
EXTT8=
EXTT9=
EXTT10=
EXTT11=
EXTT12=
EXTT13=
EXTT14=
EXTT15=
EXTT16=
EXTT17=
EXTT18=
EXTT19=
EXTT20=
EXTT21=
EXTT22=
EXTT23=
EXTT24=
EXTT25=
EXTT26=
EXTT27=
EXTT28=
EXTT29=
EXTT30=
PLAYORDER=
